<?xml version="1.0" encoding="UTF-8" standalone="no" ?>
<!DOCTYPE svg PUBLIC "-//W3C//DTD SVG 1.1//EN" "http://www.w3.org/Graphics/SVG/1.1/DTD/svg11.dtd">
<svg xmlns="http://www.w3.org/2000/svg" xmlns:xlink="http://www.w3.org/1999/xlink" version="1.1" width="140" height="84" viewBox="0 0 140 84" xml:space="preserve">
<desc>Created with Fabric.js 3.6.3</desc>
<defs>
</defs>
<g transform="matrix(1 0 0 1 70.06 10)"  >
<g style=""   >
		<g transform="matrix(1 0 0 1 45.5 62.5)"  >
<path style="stroke: none; stroke-width: 1; stroke-dasharray: none; stroke-linecap: butt; stroke-dashoffset: 0; stroke-linejoin: miter; stroke-miterlimit: 4; fill: rgb(88,89,91); fill-rule: nonzero; opacity: 1;"  transform=" translate(-115.56, -137.5)" d="M 125.05 133.01 c 0.65 1.36 1.01 2.88 1.01 4.49 c 0 5.8 -4.7 10.5 -10.5 10.5 c -2.72 0 -5.19 -1.04 -7.06 -2.73 c -2.11 -1.92 -3.44 -4.69 -3.44 -7.77 c 0 -1.61 0.36 -3.13 1.01 -4.49 V 133 c 1.69 -3.54 5.3 -6 9.49 -6 c 4.19 0 7.8 2.46 9.49 6 V 133.01 z M 119.07 137.5 c 0 -0.53 -0.12 -1.03 -0.33 -1.47 c -0.55 -1.16 -1.74 -1.97 -3.11 -1.97 c -1.37 0 -2.56 0.81 -3.11 1.97 c -0.21 0.44 -0.33 0.94 -0.33 1.47 c 0 1.9 1.54 3.44 3.44 3.44 c 0.78 0 1.5 -0.27 2.08 -0.71 C 118.54 139.61 119.07 138.61 119.07 137.5 z" stroke-linecap="round" />
</g>
		<g transform="matrix(1 0 0 1 45.57 62.5)"  >
<path style="stroke: none; stroke-width: 1; stroke-dasharray: none; stroke-linecap: butt; stroke-dashoffset: 0; stroke-linejoin: miter; stroke-miterlimit: 4; fill: rgb(63,62,64); fill-rule: nonzero; opacity: 1;"  transform=" translate(-115.63, -137.5)" d="M 118.74 136.03 c 0.21 0.44 0.33 0.94 0.33 1.47 c 0 1.11 -0.53 2.11 -1.36 2.73 c -0.58 0.44 -1.3 0.71 -2.08 0.71 c -1.9 0 -3.44 -1.54 -3.44 -3.44 c 0 -0.53 0.12 -1.03 0.33 -1.47 c 0.55 -1.16 1.74 -1.97 3.11 -1.97 C 117 134.06 118.19 134.87 118.74 136.03 z" stroke-linecap="round" />
</g>
		<g transform="matrix(1 0 0 1 43.33 17.23)"  >
<path style="stroke: none; stroke-width: 1; stroke-dasharray: none; stroke-linecap: butt; stroke-dashoffset: 0; stroke-linejoin: miter; stroke-miterlimit: 4; fill: rgb(88,89,91); fill-rule: nonzero; opacity: 1;"  transform=" translate(-113.39, -92.23)" d="M 117.66 98 c 0.43 0.6 0.6 1.27 0.56 1.91 c -0.01 -0.56 -0.19 -1.13 -0.56 -1.66 l -7.85 -11.8 l -1.26 -1.9 L 117.66 98 z" stroke-linecap="round" />
</g>
		<g transform="matrix(1 0 0 1 33.05 26.46)"  >
<path style="stroke: none; stroke-width: 1; stroke-dasharray: none; stroke-linecap: butt; stroke-dashoffset: 0; stroke-linejoin: miter; stroke-miterlimit: 4; fill: rgb(100,194,227); fill-rule: nonzero; opacity: 1;"  transform=" translate(-103.11, -101.45)" d="M 118.22 99.91 c 0.05 1.59 -1.2 3.09 -3 3.09 H 88 l 0.33 -0.25 h 26.89 C 116.93 102.75 118.14 101.4 118.22 99.91 z" stroke-linecap="round" />
</g>
		<g transform="matrix(1 0 0 1 33.22 19.6)"  >
<path style="stroke: none; stroke-width: 1; stroke-dasharray: none; stroke-linecap: butt; stroke-dashoffset: 0; stroke-linejoin: miter; stroke-miterlimit: 4; fill: rgb(22,196,193); fill-rule: nonzero; opacity: 1;"  transform=" translate(-103.28, -94.6)" d="M 117.66 98.25 c 0.37 0.53 0.55 1.1 0.56 1.66 c -0.08 1.49 -1.29 2.84 -3 2.84 H 88.33 l 21.48 -16.3 L 117.66 98.25 z" stroke-linecap="round" />
</g>
		<g transform="matrix(1 0 0 1 39.94 25)"  >
<path style="stroke: none; stroke-width: 1; stroke-dasharray: none; stroke-linecap: butt; stroke-dashoffset: 0; stroke-linejoin: miter; stroke-miterlimit: 4; fill: rgb(72,72,74); fill-rule: nonzero; opacity: 1;"  transform=" translate(-110, -100)" d="M 135.5 107.45 c -5.12 -7.26 -16.86 -23.93 -23.57 -33.45 c -0.57 -0.81 -1.1 -1.57 -1.59 -2.26 c -2.1 -2.97 -5.51 -4.74 -9.15 -4.74 H 82 v 7 v 59 h 16.46 c 0.11 -0.13 0.24 -0.26 0.36 -0.38 c 0.25 -0.89 0.59 -1.75 0.98 -2.58 c 2.79 -5.89 8.8 -9.98 15.76 -9.98 c 6.96 0 12.97 4.09 15.76 9.98 c 0.45 0.94 0.82 1.93 1.09 2.96 H 135 c 1.66 0 3 -1.34 3 -3 v -14.65 C 138 112.52 137.13 109.76 135.5 107.45 z M 115.22 103 H 88 v -0.25 V 81 h 13.63 c 2.74 0 5.32 1.32 6.92 3.55 L 117.66 98 c 0.43 0.6 0.6 1.27 0.56 1.91 C 118.27 101.5 117.02 103 115.22 103 z" stroke-linecap="round" />
</g>
		<g transform="matrix(1 0 0 1 28.85 16.88)"  >
<path style="stroke: none; stroke-width: 1; stroke-dasharray: none; stroke-linecap: butt; stroke-dashoffset: 0; stroke-linejoin: miter; stroke-miterlimit: 4; fill: rgb(107,224,235); fill-rule: nonzero; opacity: 1;"  transform=" translate(-98.91, -91.88)" d="M 108.55 84.55 l 1.26 1.9 l -21.48 16.3 H 88 V 81 h 13.63 C 104.37 81 106.95 82.32 108.55 84.55 z" stroke-linecap="round" />
</g>
		<g transform="matrix(1 0 0 1 28.71 57.8)"  >
<path style="stroke: none; stroke-width: 1; stroke-dasharray: none; stroke-linecap: butt; stroke-dashoffset: 0; stroke-linejoin: miter; stroke-miterlimit: 4; fill: rgb(104,106,107); fill-rule: nonzero; opacity: 1;"  transform=" translate(-98.78, -132.8)" d="M 98.84 132.6 c -0.04 0.13 -0.09 0.26 -0.13 0.4 c 0.03 -0.13 0.07 -0.26 0.11 -0.38 C 98.83 132.61 98.83 132.61 98.84 132.6 z" stroke-linecap="round" />
</g>
		<g transform="matrix(1 0 0 1 28.58 57.81)"  >
<path style="stroke: none; stroke-width: 1; stroke-dasharray: none; stroke-linecap: butt; stroke-dashoffset: 0; stroke-linejoin: miter; stroke-miterlimit: 4; fill: rgb(104,106,107); fill-rule: nonzero; opacity: 1;"  transform=" translate(-98.64, -132.81)" d="M 98.46 133 c 0.11 -0.13 0.24 -0.26 0.36 -0.38 c -0.04 0.12 -0.08 0.25 -0.11 0.38 H 98.46 z" stroke-linecap="round" />
</g>
		<g transform="matrix(1 0 0 1 18.11 27.88)"  >
<polygon style="stroke: none; stroke-width: 1; stroke-dasharray: none; stroke-linecap: butt; stroke-dashoffset: 0; stroke-linejoin: miter; stroke-miterlimit: 4; fill: rgb(52,163,201); fill-rule: nonzero; opacity: 1;"  points="0.17,-0.13 -0.16,0.13 -0.16,-0.13 " />
</g>
		<g transform="matrix(1 0 0 1 -28.06 25)"  >
<path style="stroke: none; stroke-width: 1; stroke-dasharray: none; stroke-linecap: butt; stroke-dashoffset: 0; stroke-linejoin: miter; stroke-miterlimit: 4; fill: rgb(72,72,74); fill-rule: nonzero; opacity: 1;"  transform=" translate(-42, -100)" d="M 24.36 67 h -14 c -0.31 0 -0.61 0.02 -0.9 0.05 c -0.24 0.02 -0.47 0.06 -0.7 0.11 c -0.44 0.08 -0.86 0.2 -1.27 0.35 c -0.13 0.05 -0.26 0.1 -0.38 0.15 C 6.73 67.82 6.37 68 6.03 68.21 c -0.12 0.07 -0.23 0.15 -0.34 0.22 c -0.33 0.22 -0.65 0.47 -0.95 0.74 c -0.1 0.09 -0.2 0.19 -0.29 0.28 c -0.09 0.09 -0.19 0.19 -0.28 0.29 c -0.09 0.1 -0.17 0.2 -0.26 0.3 c -0.08 0.1 -0.17 0.21 -0.25 0.32 c -0.08 0.11 -0.15 0.21 -0.23 0.33 c -0.16 0.23 -0.31 0.48 -0.44 0.73 c -0.06 0.11 -0.11 0.21 -0.16 0.31 c -0.22 0.46 -0.4 0.94 -0.54 1.44 c -0.07 0.26 -0.12 0.53 -0.17 0.8 c -0.03 0.14 -0.05 0.28 -0.06 0.42 C 2.02 74.71 2 75.03 2 75.36 V 113 h 3 h 4 v 13 H 5 H 2 v 7 h 12.46 c 0.11 -0.13 0.24 -0.26 0.36 -0.38 c 0.25 -0.89 0.59 -1.75 0.98 -2.58 c 2.74 -5.79 8.59 -9.84 15.4 -9.97 c 0.12 -0.01 0.24 -0.01 0.36 -0.01 c 0.22 0 0.43 0 0.65 0.01 c 6.81 0.13 12.66 4.18 15.4 9.97 c 0.45 0.94 0.82 1.93 1.09 2.96 H 82 V 74 v -7 H 24.36 z M 41 103 H 12 V 81 h 29 V 103 z M 76 103 H 47 V 81 h 29 V 103 z" stroke-linecap="round" />
</g>
		<g transform="matrix(1 0 0 1 -8.56 17)"  >
<polygon style="stroke: none; stroke-width: 1; stroke-dasharray: none; stroke-linecap: butt; stroke-dashoffset: 0; stroke-linejoin: miter; stroke-miterlimit: 4; fill: rgb(22,196,193); fill-rule: nonzero; opacity: 1;"  points="14.5,-11 14.5,11 -14.5,11 " />
</g>
		<g transform="matrix(1 0 0 1 -8.56 17)"  >
<polygon style="stroke: none; stroke-width: 1; stroke-dasharray: none; stroke-linecap: butt; stroke-dashoffset: 0; stroke-linejoin: miter; stroke-miterlimit: 4; fill: rgb(107,224,235); fill-rule: nonzero; opacity: 1;"  points="14.5,-11 -14.5,11 -14.5,-11 " />
</g>
		<g transform="matrix(1 0 0 1 -29.61 51.54)"  >
<path style="stroke: none; stroke-width: 1; stroke-dasharray: none; stroke-linecap: butt; stroke-dashoffset: 0; stroke-linejoin: miter; stroke-miterlimit: 4; fill: rgb(88,89,91); fill-rule: nonzero; opacity: 1;"  transform=" translate(-40.45, -126.53)" d="M 48.7 133 h -0.29 c -0.27 -1.03 -0.64 -2.02 -1.09 -2.96 c -2.7 -5.71 -8.43 -9.72 -15.11 -9.97 c 6.81 0.13 12.66 4.18 15.4 9.97 C 48.06 130.98 48.43 131.97 48.7 133 z" stroke-linecap="round" />
</g>
		<g transform="matrix(1 0 0 1 -38.5 62.5)"  >
<path style="stroke: none; stroke-width: 1; stroke-dasharray: none; stroke-linecap: butt; stroke-dashoffset: 0; stroke-linejoin: miter; stroke-miterlimit: 4; fill: rgb(88,89,91); fill-rule: nonzero; opacity: 1;"  transform=" translate(-31.56, -137.5)" d="M 22.08 133 c 1.68 -3.54 5.29 -6 9.48 -6 s 7.81 2.46 9.49 6.01 c 0.65 1.36 1.01 2.88 1.01 4.49 c 0 3.4 -1.62 6.43 -4.13 8.34 c -1.77 1.35 -3.97 2.16 -6.37 2.16 c -5.8 0 -10.5 -4.7 -10.5 -10.5 c 0 -1.61 0.36 -3.13 1.01 -4.49 L 22.08 133 z M 35 137.5 c 0 -0.53 -0.12 -1.03 -0.33 -1.47 c -0.55 -1.16 -1.74 -1.97 -3.11 -1.97 c -1.37 0 -2.56 0.81 -3.11 1.97 c -0.21 0.44 -0.33 0.94 -0.33 1.47 c 0 1.9 1.54 3.44 3.44 3.44 c 0.79 0 1.51 -0.27 2.09 -0.71 C 34.47 139.61 35 138.61 35 137.5 z" stroke-linecap="round" />
</g>
		<g transform="matrix(1 0 0 1 -43.56 17)"  >
<polygon style="stroke: none; stroke-width: 1; stroke-dasharray: none; stroke-linecap: butt; stroke-dashoffset: 0; stroke-linejoin: miter; stroke-miterlimit: 4; fill: rgb(22,196,193); fill-rule: nonzero; opacity: 1;"  points="14.5,-11 14.5,11 -14.5,11 " />
</g>
		<g transform="matrix(1 0 0 1 -43.56 17)"  >
<polygon style="stroke: none; stroke-width: 1; stroke-dasharray: none; stroke-linecap: butt; stroke-dashoffset: 0; stroke-linejoin: miter; stroke-miterlimit: 4; fill: rgb(107,224,235); fill-rule: nonzero; opacity: 1;"  points="14.5,-11 -14.5,11 -14.5,-11 " />
</g>
		<g transform="matrix(1 0 0 1 -38.5 62.5)"  >
<path style="stroke: none; stroke-width: 1; stroke-dasharray: none; stroke-linecap: butt; stroke-dashoffset: 0; stroke-linejoin: miter; stroke-miterlimit: 4; fill: rgb(63,62,64); fill-rule: nonzero; opacity: 1;"  transform=" translate(-31.56, -137.5)" d="M 34.67 136.03 c 0.21 0.44 0.33 0.94 0.33 1.47 c 0 1.11 -0.53 2.11 -1.35 2.73 c -0.58 0.44 -1.3 0.71 -2.09 0.71 c -1.9 0 -3.44 -1.54 -3.44 -3.44 c 0 -0.53 0.12 -1.03 0.33 -1.47 c 0.55 -1.16 1.74 -1.97 3.11 -1.97 C 32.93 134.06 34.12 134.87 34.67 136.03 z" stroke-linecap="round" />
</g>
		<g transform="matrix(1 0 0 1 -55.29 57.8)"  >
<path style="stroke: none; stroke-width: 1; stroke-dasharray: none; stroke-linecap: butt; stroke-dashoffset: 0; stroke-linejoin: miter; stroke-miterlimit: 4; fill: rgb(122,124,125); fill-rule: nonzero; opacity: 1;"  transform=" translate(-14.77, -132.8)" d="M 14.84 132.6 c -0.04 0.13 -0.09 0.26 -0.13 0.4 c 0.03 -0.13 0.07 -0.26 0.11 -0.38 C 14.83 132.61 14.83 132.61 14.84 132.6 z" stroke-linecap="round" />
</g>
		<g transform="matrix(1 0 0 1 -55.42 57.81)"  >
<path style="stroke: none; stroke-width: 1; stroke-dasharray: none; stroke-linecap: butt; stroke-dashoffset: 0; stroke-linejoin: miter; stroke-miterlimit: 4; fill: rgb(122,124,125); fill-rule: nonzero; opacity: 1;"  transform=" translate(-14.64, -132.81)" d="M 14.46 133 c 0.11 -0.13 0.24 -0.26 0.36 -0.38 c -0.04 0.12 -0.08 0.25 -0.11 0.38 H 14.46 z" stroke-linecap="round" />
</g>
		<g transform="matrix(1 0 0 1 -60.95 -7.89)"  >
<path style="stroke: none; stroke-width: 1; stroke-dasharray: none; stroke-linecap: butt; stroke-dashoffset: 0; stroke-linejoin: miter; stroke-miterlimit: 4; fill: rgb(122,124,125); fill-rule: nonzero; opacity: 1;"  transform=" translate(-9.11, -67.1)" d="M 8.76 67.16 c 0.23 -0.05 0.46 -0.09 0.7 -0.11 C 9.22 67.07 8.99 67.11 8.76 67.16 z" stroke-linecap="round" />
</g>
		<g transform="matrix(1 0 0 1 -64.56 44.5)"  >
<rect style="stroke: none; stroke-width: 1; stroke-dasharray: none; stroke-linecap: butt; stroke-dashoffset: 0; stroke-linejoin: miter; stroke-miterlimit: 4; fill: rgb(237,63,69); fill-rule: nonzero; opacity: 1;"  x="-3.5" y="-6.5" rx="0" ry="0" width="7" height="13" />
</g>
		<g transform="matrix(1 0 0 1 -62.76 -7.41)"  >
<path style="stroke: none; stroke-width: 1; stroke-dasharray: none; stroke-linecap: butt; stroke-dashoffset: 0; stroke-linejoin: miter; stroke-miterlimit: 4; fill: rgb(122,124,125); fill-rule: nonzero; opacity: 1;"  transform=" translate(-7.3, -67.59)" d="M 7.49 67.51 c -0.13 0.05 -0.26 0.1 -0.38 0.15 C 7.23 67.6 7.36 67.55 7.49 67.51 z" stroke-linecap="round" />
</g>
		<g transform="matrix(1 0 0 1 -64.2 -6.68)"  >
<path style="stroke: none; stroke-width: 1; stroke-dasharray: none; stroke-linecap: butt; stroke-dashoffset: 0; stroke-linejoin: miter; stroke-miterlimit: 4; fill: rgb(122,124,125); fill-rule: nonzero; opacity: 1;"  transform=" translate(-5.86, -68.32)" d="M 6.03 68.21 c -0.12 0.07 -0.23 0.15 -0.34 0.22 C 5.8 68.35 5.92 68.27 6.03 68.21 z" stroke-linecap="round" />
</g>
		<g transform="matrix(1 0 0 1 -65.47 -5.69)"  >
<path style="stroke: none; stroke-width: 1; stroke-dasharray: none; stroke-linecap: butt; stroke-dashoffset: 0; stroke-linejoin: miter; stroke-miterlimit: 4; fill: rgb(122,124,125); fill-rule: nonzero; opacity: 1;"  transform=" translate(-4.6, -69.31)" d="M 4.74 69.17 c -0.1 0.09 -0.2 0.19 -0.29 0.28 C 4.54 69.36 4.64 69.26 4.74 69.17 z" stroke-linecap="round" />
</g>
		<g transform="matrix(1 0 0 1 -66.02 -5.11)"  >
<path style="stroke: none; stroke-width: 1; stroke-dasharray: none; stroke-linecap: butt; stroke-dashoffset: 0; stroke-linejoin: miter; stroke-miterlimit: 4; fill: rgb(122,124,125); fill-rule: nonzero; opacity: 1;"  transform=" translate(-4.04, -69.89)" d="M 4.17 69.74 c -0.09 0.1 -0.17 0.2 -0.26 0.3 C 3.99 69.94 4.08 69.84 4.17 69.74 z" stroke-linecap="round" />
</g>
		<g transform="matrix(1 0 0 1 -66.52 -4.48)"  >
<path style="stroke: none; stroke-width: 1; stroke-dasharray: none; stroke-linecap: butt; stroke-dashoffset: 0; stroke-linejoin: miter; stroke-miterlimit: 4; fill: rgb(122,124,125); fill-rule: nonzero; opacity: 1;"  transform=" translate(-3.54, -70.53)" d="M 3.66 70.36 c -0.08 0.11 -0.15 0.21 -0.23 0.33 C 3.5 70.58 3.58 70.46 3.66 70.36 z" stroke-linecap="round" />
</g>
		<g transform="matrix(1 0 0 1 -67.15 -3.42)"  >
<path style="stroke: none; stroke-width: 1; stroke-dasharray: none; stroke-linecap: butt; stroke-dashoffset: 0; stroke-linejoin: miter; stroke-miterlimit: 4; fill: rgb(122,124,125); fill-rule: nonzero; opacity: 1;"  transform=" translate(-2.91, -71.58)" d="M 2.99 71.42 c -0.06 0.11 -0.11 0.21 -0.16 0.31 C 2.88 71.63 2.93 71.52 2.99 71.42 z" stroke-linecap="round" />
</g>
		<g transform="matrix(1 0 0 1 -67.86 -1.43)"  >
<path style="stroke: none; stroke-width: 1; stroke-dasharray: none; stroke-linecap: butt; stroke-dashoffset: 0; stroke-linejoin: miter; stroke-miterlimit: 4; fill: rgb(88,89,91); fill-rule: nonzero; opacity: 1;"  transform=" translate(-2.21, -73.57)" d="M 2.29 73.17 c -0.07 0.26 -0.12 0.53 -0.17 0.8 C 2.16 73.7 2.22 73.43 2.29 73.17 z" stroke-linecap="round" />
</g>
		<g transform="matrix(1 0 0 1 33.05 16.88)"  >
<path style="stroke: none; stroke-width: 1; stroke-dasharray: none; stroke-linecap: butt; stroke-dashoffset: 0; stroke-linejoin: miter; stroke-miterlimit: 4; fill: rgb(36,36,36); fill-rule: nonzero; opacity: 1;"  transform=" translate(-103.11, -91.88)" d="M 110.175 83.384 c -1.97 -2.745 -5.164 -4.384 -8.545 -4.384 H 88 c -1.104 0 -2 0.896 -2 2 v 21.75 c 0 1.104 0.896 2 2 2 h 27.22 c 2.656 0 4.85 -2.074 4.997 -4.724 c 0.069 -1.142 -0.253 -2.245 -0.9 -3.148 L 110.175 83.384 z M 116.223 99.803 c -0.024 0.459 -0.385 0.947 -1.003 0.947 H 90 V 83 h 11.63 c 2.096 0 4.075 1.016 5.264 2.672 l 9.141 13.493 c 0.14 0.194 0.203 0.402 0.189 0.62 C 116.224 99.791 116.223 99.797 116.223 99.803 z" stroke-linecap="round" />
</g>
		<g transform="matrix(1 0 0 1 -44.82 62.5)"  >
<path style="stroke: none; stroke-width: 1; stroke-dasharray: none; stroke-linecap: butt; stroke-dashoffset: 0; stroke-linejoin: miter; stroke-miterlimit: 4; fill: rgb(36,36,36); fill-rule: nonzero; opacity: 1;"  transform=" translate(-25.24, -137.5)" d="M 31.56 125 c -4.753 0 -9.146 2.752 -11.229 7.022 c -0.023 0.041 -0.045 0.082 -0.065 0.125 c -0.8 1.674 -1.206 3.475 -1.206 5.353 c 0 3.284 1.283 6.267 3.361 8.5 H 8.411 c -1.104 0 -2 0.896 -2 2 s 0.896 2 2 2 H 31.56 c 2.758 0 5.381 -0.889 7.581 -2.568 c 3.126 -2.378 4.919 -5.998 4.919 -9.932 c 0 -1.878 -0.405 -3.678 -1.204 -5.35 C 40.798 127.807 36.365 125 31.56 125 z M 36.716 144.25 c -1.5 1.145 -3.282 1.75 -5.156 1.75 c -4.687 0 -8.5 -3.813 -8.5 -8.5 c 0 -1.238 0.258 -2.424 0.768 -3.527 c 0.021 -0.037 0.041 -0.076 0.06 -0.115 c 1.4 -2.951 4.412 -4.857 7.673 -4.857 c 3.269 0 6.284 1.91 7.683 4.865 c 0.001 0.002 0.002 0.005 0.003 0.007 c 0.541 1.13 0.814 2.351 0.814 3.628 C 40.06 140.173 38.842 142.633 36.716 144.25 z" stroke-linecap="round" />
</g>
		<g transform="matrix(1 0 0 1 39.32 62.5)"  >
<path style="stroke: none; stroke-width: 1; stroke-dasharray: none; stroke-linecap: butt; stroke-dashoffset: 0; stroke-linejoin: miter; stroke-miterlimit: 4; fill: rgb(36,36,36); fill-rule: nonzero; opacity: 1;"  transform=" translate(-109.37, -137.5)" d="M 126.854 132.139 c -2.069 -4.337 -6.503 -7.139 -11.295 -7.139 c -4.791 0 -9.225 2.802 -11.294 7.139 c -0.02 0.04 -0.037 0.082 -0.054 0.123 c -0.765 1.642 -1.152 3.403 -1.152 5.238 c 0 3.157 1.215 6.194 3.354 8.5 H 92.681 c -1.104 0 -2 0.896 -2 2 s 0.896 2 2 2 h 23.148 c 0.093 0 0.182 -0.015 0.272 -0.027 c 6.64 -0.286 11.958 -5.763 11.958 -12.473 c 0 -1.835 -0.387 -3.595 -1.149 -5.234 C 126.894 132.223 126.875 132.181 126.854 132.139 z M 115.56 146 c -2.108 0 -4.139 -0.786 -5.714 -2.21 c -1.771 -1.611 -2.786 -3.903 -2.786 -6.29 c 0 -1.275 0.274 -2.496 0.815 -3.628 c 0.017 -0.035 0.032 -0.07 0.047 -0.106 c 1.429 -2.898 4.415 -4.766 7.638 -4.766 s 6.209 1.866 7.638 4.763 c 0.015 0.037 0.031 0.073 0.048 0.109 c 0.541 1.13 0.814 2.351 0.814 3.628 C 124.06 142.187 120.246 146 115.56 146 z" stroke-linecap="round" />
</g>
		<g transform="matrix(1 0 0 1 -0.06 25)"  >
<path style="stroke: none; stroke-width: 1; stroke-dasharray: none; stroke-linecap: butt; stroke-dashoffset: 0; stroke-linejoin: miter; stroke-miterlimit: 4; fill: rgb(36,36,36); fill-rule: nonzero; opacity: 1;"  transform=" translate(-70, -100)" d="M 137.135 106.298 c -2.869 -4.068 -7.817 -11.092 -12.794 -18.156 l -11.271 -15.999 c -0.386 -0.55 -0.753 -1.073 -1.097 -1.557 C 109.501 67.088 105.47 65 101.19 65 H 10.36 c -0.381 0 -0.749 0.024 -1.066 0.057 c -0.329 0.027 -0.645 0.081 -0.893 0.136 c -0.533 0.097 -1.056 0.241 -1.673 0.468 c -0.134 0.052 -0.267 0.104 -0.394 0.156 c -0.496 0.209 -0.94 0.435 -1.31 0.665 c -0.116 0.067 -0.228 0.14 -0.335 0.212 l -0.108 0.072 c -0.408 0.272 -0.806 0.581 -1.174 0.913 c -0.13 0.116 -0.26 0.245 -0.384 0.369 c -0.111 0.111 -0.233 0.234 -0.34 0.354 l -0.263 0.303 c -0.024 0.027 -0.089 0.105 -0.111 0.134 c -0.088 0.109 -0.182 0.227 -0.27 0.347 c -0.096 0.132 -0.18 0.251 -0.253 0.362 c -0.206 0.296 -0.398 0.616 -0.55 0.908 c -0.075 0.136 -0.137 0.26 -0.213 0.413 c -0.27 0.565 -0.492 1.159 -0.666 1.781 c -0.085 0.314 -0.157 0.64 -0.208 0.967 c -0.042 0.206 -0.069 0.405 -0.076 0.526 C 0.024 74.545 0 74.944 0 75.36 V 113 v 13 v 7 c 0 1.104 0.896 2 2 2 h 12.71 c 0.055 0 0.106 -0.012 0.16 -0.016 c 0.044 0.003 0.088 0.017 0.131 0.017 c 0.888 0 1.699 -0.596 1.934 -1.495 c 0.228 -0.869 0.543 -1.723 0.963 -2.61 c 2.473 -5.229 7.599 -8.61 13.378 -8.826 c 0.15 -0.006 0.294 -0.031 0.434 -0.067 c 0.149 0.039 0.302 0.065 0.462 0.068 c 5.885 0.112 11.107 3.494 13.634 8.832 c 0.224 0.469 0.511 1.733 0.634 2.44 c 0.17 0.972 1.015 1.657 1.969 1.657 c 0.051 0 0.104 -0.01 0.156 -0.014 C 48.61 134.989 48.654 135 48.7 135 h 49.76 c 0.039 0 0.076 -0.009 0.115 -0.012 c 0.959 0.063 1.857 -0.566 2.084 -1.534 c 0.016 -0.069 0.038 -0.138 0.088 -0.293 c 0.202 -0.72 0.484 -1.463 0.861 -2.265 c 2.543 -5.368 8.02 -8.837 13.952 -8.837 c 5.934 0 11.41 3.469 13.956 8.843 c 0.406 0.851 0.729 1.728 0.96 2.605 c 0.005 0.02 0.019 0.035 0.025 0.054 c 0.058 0.198 0.138 0.388 0.251 0.555 c 0.002 0.003 0.005 0.006 0.008 0.01 c 0.109 0.159 0.245 0.296 0.395 0.417 c 0.027 0.022 0.052 0.045 0.08 0.066 c 0.149 0.109 0.313 0.196 0.49 0.261 c 0.036 0.013 0.072 0.023 0.109 0.034 c 0.179 0.054 0.365 0.092 0.561 0.093 c 0.006 0 0.011 0.003 0.016 0.003 c 0.002 0 0.005 -0.001 0.008 -0.001 H 135 c 2.757 0 5 -2.243 5 -5 v -14.65 C 140 112.084 139.009 108.954 137.135 106.298 z M 4 115 h 3 v 9 H 4 V 115 z M 80 131 H 50.025 c -0.16 -0.628 -0.364 -1.307 -0.607 -1.815 c -3.178 -6.714 -9.757 -10.973 -17.17 -11.114 c -0.013 0 -0.026 0 -0.039 0 c -0.178 0 -0.347 0.031 -0.511 0.075 c -0.183 -0.048 -0.373 -0.079 -0.573 -0.074 c -7.276 0.272 -13.73 4.531 -16.843 11.112 c -0.289 0.611 -0.532 1.214 -0.748 1.816 H 4 v -3 h 5 c 1.104 0 2 -0.896 2 -2 v -13 c 0 -1.104 -0.896 -2 -2 -2 H 4 V 75.36 c 0 -0.246 0.015 -0.483 0.054 -0.817 c 0.004 -0.05 0.011 -0.1 0.021 -0.149 c 0.009 -0.043 0.017 -0.087 0.023 -0.13 c 0.028 -0.193 0.072 -0.386 0.118 -0.556 c 0.106 -0.383 0.247 -0.759 0.404 -1.087 c 0.037 -0.076 0.075 -0.152 0.144 -0.279 c 0.091 -0.174 0.194 -0.349 0.329 -0.542 c 0.064 -0.096 0.121 -0.176 0.183 -0.261 c 0.045 -0.062 0.094 -0.123 0.174 -0.222 l 0.208 -0.24 c 0.062 -0.069 0.132 -0.137 0.21 -0.216 c 0.063 -0.063 0.133 -0.135 0.211 -0.204 c 0.23 -0.208 0.473 -0.397 0.692 -0.544 l 0.31 -0.201 c 0.237 -0.147 0.501 -0.28 0.802 -0.407 l 0.294 -0.117 c 0.326 -0.119 0.635 -0.205 1.01 -0.274 c 0.145 -0.032 0.288 -0.059 0.478 -0.075 C 9.889 69.016 10.12 69 10.36 69 H 80 V 131 z M 136 130 c 0 0.552 -0.448 1 -1 1 h -1.125 c -0.219 -0.614 -0.463 -1.222 -0.747 -1.816 c -3.201 -6.758 -10.098 -11.124 -17.568 -11.124 s -14.366 4.366 -17.57 11.131 c -0.299 0.637 -0.534 1.234 -0.739 1.81 H 84 V 69 h 17.19 c 2.982 0 5.792 1.456 7.52 3.898 c 0.342 0.482 0.703 0.998 1.085 1.541 l 11.275 16.006 c 4.978 7.064 9.926 14.089 12.796 18.158 c 1.396 1.979 2.134 4.311 2.134 6.746 V 130 z" stroke-linecap="round" />
</g>
		<g transform="matrix(1 0 0 1 -8.56 17)"  >
<path style="stroke: none; stroke-width: 1; stroke-dasharray: none; stroke-linecap: butt; stroke-dashoffset: 0; stroke-linejoin: miter; stroke-miterlimit: 4; fill: rgb(36,36,36); fill-rule: nonzero; opacity: 1;"  transform=" translate(-61.5, -92)" d="M 47 105 h 29 c 1.104 0 2 -0.896 2 -2 V 81 c 0 -1.104 -0.896 -2 -2 -2 H 47 c -1.104 0 -2 0.896 -2 2 v 22 C 45 104.104 45.896 105 47 105 z M 49 83 h 25 v 18 H 49 V 83 z" stroke-linecap="round" />
</g>
		<g transform="matrix(1 0 0 1 -43.56 17)"  >
<path style="stroke: none; stroke-width: 1; stroke-dasharray: none; stroke-linecap: butt; stroke-dashoffset: 0; stroke-linejoin: miter; stroke-miterlimit: 4; fill: rgb(36,36,36); fill-rule: nonzero; opacity: 1;"  transform=" translate(-26.5, -92)" d="M 10 103 c 0 1.104 0.896 2 2 2 h 29 c 1.104 0 2 -0.896 2 -2 V 81 c 0 -1.104 -0.896 -2 -2 -2 H 12 c -1.104 0 -2 0.896 -2 2 V 103 z M 14 83 h 25 v 18 H 14 V 83 z" stroke-linecap="round" />
</g>
		<g transform="matrix(1 0 0 1 -38.49 62.5)"  >
<path style="stroke: none; stroke-width: 1; stroke-dasharray: none; stroke-linecap: butt; stroke-dashoffset: 0; stroke-linejoin: miter; stroke-miterlimit: 4; fill: rgb(36,36,36); fill-rule: nonzero; opacity: 1;"  transform=" translate(-31.56, -137.5)" d="M 31.56 132.06 c -2.09 0 -4.021 1.223 -4.914 3.108 c -0.344 0.72 -0.525 1.526 -0.525 2.332 c 0 3 2.44 5.44 5.439 5.44 c 1.194 0 2.335 -0.386 3.298 -1.115 C 36.199 140.81 37 139.193 37 137.5 c 0 -0.806 -0.182 -1.612 -0.522 -2.326 C 35.581 133.282 33.65 132.06 31.56 132.06 z M 32.442 138.637 c -0.183 0.139 -0.484 0.304 -0.883 0.304 c -0.794 0 -1.439 -0.646 -1.439 -1.44 c 0 -0.216 0.045 -0.421 0.138 -0.613 c 0.238 -0.503 0.749 -0.827 1.302 -0.827 c 0.554 0 1.064 0.324 1.306 0.833 c 0.09 0.187 0.135 0.392 0.135 0.607 C 33 137.947 32.792 138.372 32.442 138.637 z" stroke-linecap="round" />
</g>
		<g transform="matrix(1 0 0 1 45.58 62.5)"  >
<path style="stroke: none; stroke-width: 1; stroke-dasharray: none; stroke-linecap: butt; stroke-dashoffset: 0; stroke-linejoin: miter; stroke-miterlimit: 4; fill: rgb(36,36,36); fill-rule: nonzero; opacity: 1;"  transform=" translate(-115.63, -137.5)" d="M 115.63 132.06 c -2.089 0 -4.02 1.222 -4.915 3.108 c -0.343 0.719 -0.524 1.524 -0.524 2.332 c 0 3 2.44 5.44 5.439 5.44 c 1.188 0 2.324 -0.386 3.277 -1.107 c 1.354 -1.013 2.163 -2.632 2.163 -4.333 c 0 -0.806 -0.182 -1.612 -0.522 -2.326 C 119.651 133.282 117.721 132.06 115.63 132.06 z M 116.502 138.637 c -0.183 0.139 -0.482 0.304 -0.872 0.304 c -0.794 0 -1.439 -0.646 -1.439 -1.44 c 0 -0.218 0.045 -0.422 0.136 -0.612 c 0.239 -0.503 0.751 -0.828 1.304 -0.828 c 0.554 0 1.064 0.324 1.306 0.833 c 0.09 0.187 0.135 0.392 0.135 0.607 C 117.07 137.945 116.862 138.367 116.502 138.637 z" stroke-linecap="round" />
</g>
		<g transform="matrix(1 0 0 1 17.94 38)"  >
<path style="stroke: none; stroke-width: 1; stroke-dasharray: none; stroke-linecap: butt; stroke-dashoffset: 0; stroke-linejoin: miter; stroke-miterlimit: 4; fill: rgb(36,36,36); fill-rule: nonzero; opacity: 1;"  transform=" translate(-88, -113)" d="M 88 108 c -1.104 0 -2 0.896 -2 2 v 6 c 0 1.104 0.896 2 2 2 s 2 -0.896 2 -2 v -6 C 90 108.896 89.104 108 88 108 z" stroke-linecap="round" />
</g>
</g>
</g>
</svg>